<?xml version="1.0" encoding="utf-8"?>
<!-- Generator: Adobe Illustrator 27.4.0, SVG Export Plug-In . SVG Version: 6.00 Build 0)  -->
<svg version="1.1" id="Layer_1" xmlns="http://www.w3.org/2000/svg" xmlns:xlink="http://www.w3.org/1999/xlink" x="0px" y="0px"
	 viewBox="0 0 48 48" style="enable-background:new 0 0 48 48;" xml:space="preserve">
<style type="text/css">
	.st0{display:none;}
	.st1{fill:#161616;}
	.st2{fill:#FFFFFF;}
	.st3{fill:#CF000F;}
</style>
<g class="st0">
	<path class="st1" d="M0,0h48v48H0V0z"/>
	<path class="st2" d="M20.9,35.4c3.2,0,5.7-0.9,7.6-2.8c1.9-1.9,2.9-4.2,2.9-7.2v-1.5H20.6v3.1h7.2c-0.3,1.5-1.1,2.7-2.3,3.5
		S22.8,32,20.9,32c-2.4,0-4.3-0.7-5.8-2.2c-1.5-1.4-2.2-3.2-2.2-5.4c0-2.2,0.7-4,2.2-5.5c1.5-1.5,3.3-2.2,5.6-2.2
		c1.4,0,2.7,0.3,3.8,0.9s2,1.4,2.6,2.5l3-1.7c-0.9-1.6-2.2-2.8-3.9-3.7s-3.5-1.3-5.5-1.3c-3.2,0-5.9,1.1-8.1,3.2
		c-2.2,2.1-3.2,4.7-3.2,7.8c0,3.1,1.1,5.7,3.2,7.8C14.8,34.4,17.5,35.4,20.9,35.4z"/>
	<path class="st3" d="M36.4,35.4c0.6,0,1-0.2,1.4-0.6c0.4-0.4,0.6-0.9,0.6-1.4c0-0.6-0.2-1-0.6-1.4c-0.4-0.4-0.9-0.6-1.4-0.6
		c-0.6,0-1,0.2-1.4,0.6c-0.4,0.4-0.6,0.9-0.6,1.4c0,0.6,0.2,1,0.6,1.4C35.4,35.2,35.9,35.4,36.4,35.4z"/>
</g>
<image style="overflow:visible;" width="478" height="478" xlink:href="F2E128F9.png"  transform="matrix(8.717617e-02 0 0 8.717617e-02 3.1649 3.1649)">
</image>
</svg>
